<svg width="249" height="249" viewBox="0 0 249 249" fill="none" xmlns="http://www.w3.org/2000/svg">
<path d="M248.074 124.035C248.074 192.543 192.539 248.074 124.035 248.074C55.5352 248.074 0 192.543 0 124.035C0 55.5312 55.5352 0 124.035 0C192.539 0 248.074 55.5312 248.074 124.035Z" fill="#100F0D"/>
<mask id="mask0_92_5169" style="mask-type:luminance" maskUnits="userSpaceOnUse" x="72" y="47" width="108" height="202">
<path d="M72.9609 47.5234H179.961V248.523H72.9609V47.5234Z" fill="white"/>
</mask>
<g mask="url(#mask0_92_5169)">
<mask id="mask1_92_5169" style="mask-type:luminance" maskUnits="userSpaceOnUse" x="0" y="0" width="249" height="249">
<path d="M248.074 124.035C248.074 192.543 192.539 248.074 124.035 248.074C55.5352 248.074 0 192.543 0 124.035C0 55.5312 55.5352 0 124.035 0C192.539 0 248.074 55.5312 248.074 124.035Z" fill="white"/>
</mask>
<g mask="url(#mask1_92_5169)">
<path d="M161.445 81.4336H179.219V50.6406C179.219 50.6406 160.934 48.3008 150.812 48.3008C120.195 48.3008 104.891 69.3672 104.891 97.2969V124.16H73.1719V159.734H104.891V249.715H143.344V159.734H172.414L177.684 124.16H143.344V99.5352C143.344 89.5352 151.449 81.4336 161.445 81.4336Z" fill="white"/>
</g>
</g>
</svg>
