<svg width="249" height="249" viewBox="0 0 249 249" fill="none" xmlns="http://www.w3.org/2000/svg">
<path d="M248.125 124.512C248.125 193.02 192.59 248.551 124.09 248.551C55.5859 248.551 0.0507812 193.02 0.0507812 124.512C0.0507812 56.0078 55.5859 0.476562 124.09 0.476562C192.59 0.476562 248.125 56.0078 248.125 124.512Z" fill="#100F0D"/>
<path d="M91.1953 60.4375C74 60.4375 60.0117 74.4258 60.0117 91.6211V157.398C60.0117 174.602 74 188.59 91.1953 188.59H156.977C174.176 188.59 188.164 174.602 188.164 157.398V91.6211C188.164 74.4258 174.176 60.4375 156.977 60.4375H91.1953ZM156.977 204.23H91.1953C65.375 204.23 44.3672 183.219 44.3672 157.398V91.6211C44.3672 65.8008 65.375 44.793 91.1953 44.793H156.977C182.801 44.793 203.809 65.8008 203.809 91.6211V157.398C203.809 183.219 182.801 204.23 156.977 204.23Z" fill="white"/>
<path d="M124.09 99.7148C110.414 99.7148 99.2891 110.84 99.2891 124.512C99.2891 138.188 110.414 149.309 124.09 149.309C137.762 149.309 148.887 138.188 148.887 124.512C148.887 110.84 137.762 99.7148 124.09 99.7148ZM124.09 164.949C101.785 164.949 83.6445 146.812 83.6445 124.512C83.6445 102.215 101.785 84.0703 124.09 84.0703C146.387 84.0703 164.531 102.215 164.531 124.512C164.531 146.812 146.387 164.949 124.09 164.949Z" fill="white"/>
<path d="M176.18 82.1562C176.18 87.5312 171.82 91.8945 166.445 91.8945C161.066 91.8945 156.707 87.5312 156.707 82.1562C156.707 76.7773 161.066 72.418 166.445 72.418C171.82 72.418 176.18 76.7773 176.18 82.1562Z" fill="white"/>
</svg>
