<svg width="249" height="249" viewBox="0 0 249 249" fill="none" xmlns="http://www.w3.org/2000/svg">
<path d="M248.07 124.031C248.07 192.543 192.543 248.07 124.031 248.07C55.5312 248.07 0 192.543 0 124.031C0 55.5312 55.5312 0 124.031 0C192.543 0 248.07 55.5312 248.07 124.031Z" fill="#100F0D"/>
<path d="M61.4336 188.113V102.18H88.1406V188.113H61.4336Z" fill="white"/>
<path d="M156.32 100.242C142.082 100.242 133.301 108.5 129.781 113.953H129.25V102.18H105.531V188.113H132.242V138.551C132.242 136.09 132.59 133.633 133.301 131.871C135.051 126.953 139.453 121.863 146.832 121.863C156.492 121.863 160.363 129.41 160.363 140.48V188.113H187.07V137.152C187.07 111.84 173.891 100.242 156.32 100.242Z" fill="white"/>
<path d="M90.9609 76.1328C90.9609 85.0703 83.7109 92.3125 74.7812 92.3125C65.8516 92.3125 58.6016 85.0703 58.6016 76.1328C58.6016 67.2031 65.8516 59.9609 74.7812 59.9609C83.7109 59.9609 90.9609 67.2031 90.9609 76.1328Z" fill="white"/>
</svg>
